<?xml version="1.0" encoding="UTF-8"?>
<svg id="Layer_2" data-name="Layer 2" xmlns="http://www.w3.org/2000/svg" viewBox="0 0 132.56 120.6">
  <defs>
    <style>
      .cls-1 {
        fill: #ff671d;
      }

      .cls-2 {
        fill: #a7a8a9;
      }

      .cls-3 {
        fill: #e04403;
      }
    </style>
  </defs>
  <g id="Colour_Logo_01" data-name="Colour Logo 01">
    <g id="clay_logo" data-name="clay logo">
      <g id="piece_of_clay" data-name="piece of clay">
        <path class="cls-1" d="M44.58,51.25c-1.51,1.9-1.75,4.58.16,7.74-2.55-2.94-2.45-5.91-.89-8.02-.44-.16-.88-.32-1.34-.48-1.99-.7-4.05-1.43-5.98-2.62-.5-.33-.74-.7-.73-1.11.01-.88,1.16-1.59,2.38-2.34.81-.5,1.74-1.07,1.97-1.54.99-1.65-.08-2.52-1.91-3.8-1.27-.89-2.68-1.89-2.69-3.39-6.02,1.89-10.61,5.47-12.96,10.12-2.19,4.32-2.34,9.35-.45,14.53,2.79,7.64,9.52,14.3,18.47,18.31,1.67-.48,3.03-1.01,3.99-1.78-7.4-3.06-13.96-8.17-17.91-14.94-3.22-5.52-4.41-13.1-.24-18.44-3.67,5.48-2.31,12.7.99,18.01,4.05,6.63,10.68,11.53,17.98,14.52.24-.34.43-.71.55-1.14,0-.25-.03-.5-.06-.75-6.34-2.59-11.97-6.96-15.34-12.79-2.73-4.69-3.73-11.2-.15-15.71-3.09,4.67-1.92,10.78.9,15.27,3.35,5.34,8.49,9.33,14.27,11.88-.23-.68-.53-1.36-.85-2.02-5.05-2.52-9.35-6.43-11.67-11.54-1.73-3.69-1.94-8.5.71-11.78-2.25,3.48-1.81,7.91,0,11.46,2.22,4.34,5.86,7.73,10.11,10.13-.27-.57-.51-1.15-.69-1.73-3.09-2.08-5.67-4.85-7.23-8.26-1.46-3.15-1.61-7.27.67-10.05-1.89,2.98-1.48,6.71.07,9.71,1.46,2.82,3.62,5.17,6.17,7.03-.09-1.14.14-2.32.97-3.56.31-.31.63-.55.95-.73-.7-.75-1.31-1.58-1.8-2.49-1.18-2.27-1.57-5.2-.2-7.46-1.43,3.61.06,7.12,2.68,9.67,1.09-.34,2.22-.17,3.26,0,.89.14,1.74.28,2.47.1.08-.89.46-2.7.57-3.19-1.29-4.03-3.96-5.58-7.19-6.82Z"/>
        <path class="cls-3" d="M42.76,49.79c-1.95-.69-3.97-1.4-5.82-2.54-.18-.12-.39-.29-.39-.47,0-.47,1.17-1.18,2.02-1.71.99-.61,1.92-1.19,2.24-1.82,1.39-2.3-.48-3.62-2.13-4.78-1.36-.95-2.64-1.86-2.32-3.21l.15-.63-.62.18c-6.49,1.9-11.45,5.69-13.97,10.67-.2.39-.37.79-.54,1.18-3.48,4.63-4.53,10.71-2.08,17.52,2.9,8.04,9.69,14.6,17.98,18.71-.06-1.6.08-2.98,1.61-2.98.57-.08,1.8-.48,1.8-.48,0,0,3.52-1.15,4.69-2.24,0,0,0,0,.01,0,.02-.02.04-.05.06-.07.59-.57,1.03-1.26,1.25-2.11v-.09c.02-1.84-.81-3.51-1.62-5.14-1.19-2.4-2.31-4.66-.66-7.15,1.21-1.22,2.66-.99,4.19-.75,1.04.17,2.11.34,3.07,0l.25-.09v-.27c0-.57.43-2.66.59-3.41l.02-.1-.03-.09c-1.65-5.3-5.59-6.69-9.76-8.15ZM51.2,61.26c-.74.18-1.58.04-2.47-.1-1.04-.17-2.17-.34-3.26,0-2.62-2.54-4.11-6.05-2.68-9.67-1.37,2.26-.98,5.19.2,7.46.49.91,1.1,1.74,1.8,2.49-.32.18-.64.41-.95.73-.83,1.24-1.06,2.42-.97,3.56-2.55-1.86-4.71-4.21-6.17-7.03-1.55-3-1.96-6.73-.07-9.71-2.28,2.78-2.13,6.9-.67,10.05,1.56,3.41,4.13,6.18,7.23,8.26.18.58.43,1.16.69,1.73-4.25-2.4-7.89-5.79-10.11-10.13-1.81-3.54-2.25-7.97,0-11.46-2.65,3.29-2.44,8.09-.71,11.78,2.32,5.1,6.62,9.01,11.67,11.54.32.66.62,1.34.85,2.02-5.78-2.55-10.92-6.54-14.27-11.88-2.81-4.49-3.98-10.6-.9-15.27-3.58,4.51-2.58,11.02.15,15.71,3.38,5.83,9,10.2,15.34,12.79.03.25.06.5.06.75-.11.43-.31.8-.55,1.14-7.29-2.99-13.92-7.89-17.98-14.52-3.3-5.31-4.66-12.52-.99-18.01-4.17,5.34-2.98,12.92.24,18.44,3.95,6.78,10.51,11.88,17.91,14.94-.96.77-2.32,1.31-3.99,1.78-8.95-4.01-15.68-10.68-18.47-18.31-1.9-5.18-1.74-10.21.45-14.53,2.35-4.65,6.94-8.23,12.96-10.12,0,1.5,1.42,2.49,2.69,3.39,1.83,1.29,2.9,2.16,1.91,3.8-.23.47-1.16,1.04-1.97,1.54-1.22.75-2.37,1.46-2.38,2.34,0,.41.24.79.73,1.11,1.93,1.19,3.99,1.92,5.98,2.62.45.16.9.32,1.34.48-1.55,2.11-1.65,5.08.89,8.02-1.91-3.16-1.67-5.84-.16-7.74,3.23,1.24,5.91,2.8,7.19,6.82-.1.49-.48,2.3-.57,3.19Z"/>
      </g>
      <g id="piece_of_clay-2" data-name="piece of clay">
        <path class="cls-1" d="M93.14,68.02c3.14,2.28,6.38,4.64,9.97,6,.43-2.88.14-5.76-.88-8.58,0,0-.02,0-.03,0-3.39-1.16-14.08-4.56-21.43-4.17,4.62,1.13,8.54,3.98,12.36,6.76Z"/>
        <path class="cls-3" d="M78.15,60.84l-2.37.51,2.42.23c5.54.53,9.9,3.69,14.51,7.05,3.31,2.4,6.73,4.89,10.59,6.26l.43.15.11-.76c.49-3.11.17-6.23-.96-9.27l-.04-.19-.39-.1c-3.84-1.31-16.95-5.47-24.31-3.88ZM102.21,65.44s.02,0,.03,0c1.01,2.82,1.31,5.7.88,8.58-3.59-1.37-6.83-3.72-9.97-6-3.82-2.77-7.74-5.63-12.36-6.76,7.35-.39,18.04,3.02,21.43,4.17Z"/>
      </g>
      <g id="piece_of_clay-3" data-name="piece of clay">
        <path class="cls-1" d="M91.87,76.36c-4.38-4.7-8.52-9.15-13.25-11.03.87.77,1.6,1.65,2.04,2.79,1.95,4.92-2.5,8.93-7.28,8.52,6.69-.9,9.07-6.22,4.99-11.38.11.94-.04,1.68-.46,2.22-.84,1.09-2.52,1.15-4.15,1.21-1.36.05-2.77.1-3.39.79-.28.32-.4.77-.35,1.39.08,1.12-.54,3.18-.82,3.72l-.07.14-.15.05c-.98.33-2.07.14-3.12-.04-.77-.13-1.52-.26-2.23-.21,1.78,1.44,3.91,2.47,5.99,2.87,3.59.81,7.85.3,10.42-2.58-1.48,2.17-4.12,3.25-6.67,3.49-3.8.36-7.8-.99-10.63-3.58-.39.14-.77.36-1.12.72-.76,1.15-.93,2.26-.77,3.37,3.94,2.65,8.69,4.2,13.33,4.52,3.85.22,7.97-.43,10.97-3.06-2.72,3.01-7.06,4.02-11,3.94-4.43-.1-9-1.44-12.87-3.8.21.55.46,1.11.73,1.67,3.51,1.83,7.37,3.02,11.19,3.5,5.06.58,10.65-.04,14.62-3.54-3.02,3.31-7.71,4.46-12.05,4.57-4.34.02-8.86-.99-12.95-2.88.3.64.57,1.29.78,1.95,3.27,1.35,6.71,2.26,10.15,2.68,5.96.66,12.57-.09,17.21-4.25-3.58,3.87-9.07,5.18-14.18,5.3-4.29.02-8.72-.83-12.87-2.42.05.32.08.64.08.97v.09c-.09.33-.22.63-.38.91,2.76,1.06,5.6,1.86,8.43,2.36,7.71,1.21,16.54.73,22.61-4.76-4.23,4.51-10.68,6.04-16.68,6.16-5.01,0-10.2-.99-15.06-2.85-1.14,1.1-2.93,1.71-4.64,2.18,8.34,3.66,17.95,4.78,25.94,3.01,5.97-1.33,10.7-4.17,13.69-8.21.64-.86,1.2-1.81,1.69-2.83-2.68-2.24-5.24-4.99-7.71-7.65Z"/>
        <path class="cls-3" d="M100.5,83.8l-.22-.18c-2.72-2.24-5.34-5.05-7.86-7.76-4.7-5.05-9.15-9.82-14.41-11.55l-.63-.21.14.64c.23,1.06.17,1.81-.21,2.29-.62.81-2.13.86-3.58.92-1.52.06-3.09.12-3.92,1.04-.42.47-.6,1.13-.54,1.95.06.84-.41,2.55-.67,3.18-.77.2-1.66.05-2.61-.11-1.6-.28-3.4-.59-4.95.97-1.94,2.91-.65,5.53.6,8.07.77,1.57,1.57,3.19,1.59,4.87-.59,2.21-3.69,3.02-6.18,3.67l-.36.57c-.16.11-.26.23-.6.32-1.53,0-1.67,1.39-1.61,2.98,8.49,4.21,18.54,5.85,27.57,3.84,7.63-1.7,12.89-5.74,15.52-10.87.32-.37.64-.74.93-1.13.72-.97,1.36-2.06,1.89-3.22l.12-.26ZM97.89,86.83c-2.99,4.04-7.73,6.88-13.69,8.21-7.98,1.78-17.6.65-25.94-3.01,1.7-.47,3.5-1.07,4.64-2.18,4.87,1.86,10.05,2.86,15.06,2.85,6-.12,12.45-1.65,16.68-6.16-6.07,5.49-14.9,5.98-22.61,4.76-2.83-.5-5.67-1.3-8.43-2.36.16-.28.29-.58.37-.91v-.09c.01-.33-.02-.65-.07-.97,4.15,1.59,8.58,2.44,12.87,2.42,5.11-.11,10.61-1.43,14.18-5.3-4.64,4.16-11.25,4.9-17.21,4.25-3.44-.42-6.89-1.33-10.15-2.68-.21-.66-.49-1.31-.78-1.95,4.09,1.89,8.61,2.89,12.95,2.88,4.35-.11,9.04-1.25,12.05-4.57-3.96,3.5-9.56,4.11-14.62,3.54-3.81-.48-7.68-1.67-11.19-3.5-.27-.56-.53-1.12-.73-1.67,3.87,2.37,8.44,3.7,12.87,3.8,3.94.08,8.28-.93,11-3.94-3,2.63-7.12,3.28-10.97,3.06-4.63-.32-9.39-1.87-13.33-4.52-.16-1.11,0-2.22.77-3.37.35-.35.73-.57,1.12-.72,2.83,2.59,6.82,3.94,10.63,3.58,2.55-.23,5.19-1.32,6.67-3.49-2.57,2.88-6.82,3.39-10.42,2.58-2.08-.4-4.21-1.43-5.99-2.87.71-.05,1.46.08,2.23.21,1.05.18,2.14.37,3.12.04l.15-.05.07-.14c.28-.54.9-2.6.82-3.72-.05-.62.07-1.07.35-1.39.61-.68,2.02-.74,3.39-.79,1.63-.06,3.31-.12,4.15-1.21.42-.55.57-1.28.46-2.22,4.08,5.16,1.69,10.48-4.99,11.38,4.78.41,9.23-3.61,7.28-8.52-.44-1.15-1.18-2.02-2.04-2.79,4.73,1.89,8.87,6.33,13.25,11.03,2.48,2.66,5.03,5.41,7.71,7.65-.48,1.02-1.05,1.97-1.69,2.83Z"/>
      </g>
      <g id="piece_of_clay-4" data-name="piece of clay">
        <path class="cls-1" d="M55.1,27.06c1.83,1.5,4.59,3.77,2.93,6.54-.32.63-1.25,1.21-2.24,1.82-.85.52-2.01,1.24-2.02,1.71,0,.18.21.36.39.48,1.84,1.15,3.78,1.92,5.66,2.67.56.22,1.1.44,1.63.66,1.74-2.03,4.91-3.13,8.28-2.38-3.16-.08-5.94.92-7.55,2.69.75.33,1.49.68,2.19,1.09,3.76-1.33,8.16.13,10.38,3.43,1.17-.06,2.26-.12,2.73-.75.36-.48.41-1.29.14-2.5l-.08-.37-.42-.27c-2.21-1.41-4.37-2.38-6.79-3.05l-.52-.15.54-.04c2.45-.18,5.23,1.07,6.89,3.1l.28.35v-.02s.46,0,.46,0c7.64,0,19.09,6.92,23.17,9.56-.31-2.19-.99-4.37-2.02-6.49-5.25-10.82-20.02-19.29-35.92-20.6-2.6-.21-7.21-.07-9.61,1.16.21.34.93.93,1.48,1.38Z"/>
        <path class="cls-3" d="M54.62,27.64c2.24,1.84,3.99,3.53,2.75,5.6-.23.47-1.16,1.04-1.97,1.54-1.22.75-2.36,1.45-2.38,2.33,0,.42.24.79.73,1.12,1.91,1.19,3.88,1.97,5.79,2.73,1.64.65,3.19,1.27,4.61,2.1l.15.09.17-.06c3.54-1.33,7.74.06,9.77,3.25l.12.18.34-.02c1.38-.07,2.69-.13,3.39-1.05.45-.59.57-1.46.37-2.65,7.79.28,19.4,7.51,22.82,9.76.13.08.2.13.21.13l.6.28-.07-.66c-.26-2.54-1-5.08-2.19-7.54-5.36-11.05-20.38-19.69-36.53-21.02-2.78-.23-7.82-.05-10.3,1.4l-.17.1v.2c-.06.66.72,1.3,1.8,2.18ZM63.24,24.51c15.89,1.31,30.66,9.78,35.92,20.6,1.03,2.13,1.71,4.31,2.02,6.49-4.09-2.64-15.54-9.56-23.17-9.56h-.47v.02s-.28-.35-.28-.35c-1.66-2.03-4.44-3.28-6.89-3.1l-.54.04.52.15c2.42.68,4.57,1.65,6.79,3.05l.42.27.08.37c.27,1.2.22,2.02-.14,2.5-.48.62-1.57.69-2.73.75-2.22-3.3-6.62-4.75-10.38-3.43-.71-.41-1.44-.76-2.19-1.09,1.62-1.77,4.4-2.77,7.55-2.69-3.38-.76-6.54.35-8.28,2.38-.53-.22-1.08-.44-1.63-.66-1.88-.75-3.82-1.52-5.66-2.67-.18-.12-.39-.3-.39-.48,0-.47,1.17-1.18,2.02-1.71.99-.61,1.92-1.18,2.24-1.82,1.66-2.77-1.1-5.04-2.93-6.54-.55-.45-1.27-1.04-1.48-1.38,2.41-1.23,7.02-1.38,9.61-1.16Z"/>
      </g>
      <g id="piece_of_clay-5" data-name="piece of clay">
        <path class="cls-1" d="M70.17,59.61c.69-.11,1.52-.25,2.33-.39.69-.12,1.36-.23,1.89-.32.01,0,.03,0,.04,0-.04-.21-.07-.43-.1-.66-.08-.5-.16-1.02-.25-1.38-.19-.31-.83-1.33-1.22-1.92-.41.26-1.25.9-1.79,1.31-.39.29-.74.56-.99.74.59.62.36,1.85.09,2.63Z"/>
        <path class="cls-3" d="M69.13,60.08l.25.41.25-.04c.77-.12,1.91-.31,3-.5.69-.12,1.35-.23,1.91-.32.08-.02.14-.03.19-.03.12-.01.3-.04.41-.2.12-.17.08-.35.07-.43-.05-.25-.09-.55-.14-.86-.08-.55-.17-1.11-.29-1.52l-.04-.09c-.18-.29-1.1-1.75-1.44-2.26l-.1-.15-.18-.02c-.25-.03-.51.11-2.42,1.56-.51.39-1,.75-1.22.9-.11.08-.19.2-.2.34-.02.23.12.39.23.51l.08.09c.44.37.03,1.93-.26,2.41l-.11.2ZM71.06,56.24c.54-.41,1.38-1.04,1.79-1.31.39.59,1.02,1.61,1.22,1.92.1.37.18.88.25,1.38.03.23.07.45.1.66-.01,0-.03,0-.04,0-.54.09-1.21.2-1.89.32-.81.14-1.64.28-2.33.39.27-.79.5-2.02-.09-2.63.25-.18.6-.45.99-.74Z"/>
      </g>
      <g id="piece_of_clay-6" data-name="piece of clay">
        <path class="cls-1" d="M51.92,46.56s-.02-.02-.03-.03c-.14.16-.3.32-.45.49-.35.37-.71.75-.93,1.05-.13.35-.54,1.48-.77,2.14.46.16,1.48.44,2.14.61.47.12.89.24,1.19.33.12-.85,1.23-1.42,2.02-1.69-.51-.47-1.14-1.05-1.74-1.6-.51-.47-1.01-.93-1.41-1.3Z"/>
        <path class="cls-3" d="M56.09,49.98l.17-.45-.18-.17c-.57-.53-1.42-1.31-2.23-2.06-.51-.47-1.01-.93-1.43-1.31-.06-.05-.11-.1-.14-.13-.08-.08-.22-.21-.41-.2-.2,0-.33.15-.38.21-.17.19-.38.41-.59.64-.38.4-.77.82-1.03,1.17l-.05.09c-.1.26-.7,1.93-.9,2.53l-.05.17.09.15c.14.22.4.33,2.72.95.62.17,1.2.32,1.45.41.05.01.09.02.14.02.09,0,.17-.02.25-.07.19-.12.23-.33.26-.5l.02-.12c.02-.57,1.5-1.21,2.06-1.28l.23-.04ZM53.06,51.15c-.3-.09-.72-.2-1.19-.33-.66-.18-1.68-.45-2.14-.61.23-.66.64-1.79.77-2.14.23-.3.59-.68.93-1.05.16-.17.31-.33.45-.49.01,0,.02.02.03.03.4.37.9.83,1.41,1.3.6.55,1.23,1.12,1.74,1.6-.78.28-1.89.85-2.02,1.69Z"/>
      </g>
      <g id="piece_of_clay-7" data-name="piece of clay">
        <path class="cls-1" d="M69.51,49.59c.36-.39,1.15-.87,1.67-1.18.05-.03.1-.06.15-.09-.91-.84-3.9-2.23-5.9-2.48,1.43,1.18,2.51,3.16,2.86,5.25.36-.57.87-1.25,1.21-1.49Z"/>
        <path class="cls-3" d="M67.68,52.26h0s.1.29.1.29l.26.03s.03,0,.05,0c.26,0,.38-.24.47-.42.11-.33.98-1.67,1.44-2.01.34-.36,1.08-.81,1.57-1.1.13-.08.24-.14.36-.22.16-.12.25-.27.26-.43.02-.24-.13-.41-.18-.47-.97-1.12-5.76-3.3-7.86-2.81l-1.02.23.94.47c1.92.96,3.46,3.67,3.59,6.3l.03.13ZM65.43,45.83c2,.25,4.99,1.64,5.9,2.48-.05.03-.1.06-.15.09-.52.32-1.31.79-1.67,1.18-.35.25-.86.93-1.21,1.49-.35-2.09-1.43-4.07-2.86-5.25Z"/>
      </g>
      <g id="piece_of_clay-8" data-name="piece of clay">
        <path class="cls-1" d="M64.75,61.95c-.47-.28-1.28-.64-1.83-.84-.03-.01-.07-.02-.09-.03-.2-.06-.27-.07-.36-.03-.29.17-.86.92-.98,1.57-.05.26,0,.47.11.61.18.28.62.62.96.84.1-1.12.82-1.87,2.02-2.07.05-.01.11-.02.17-.03Z"/>
        <path class="cls-3" d="M64.72,62.72c.08-.02.17-.03.25-.05.34-.06.68-.12.79-.44.07-.2,0-.41-.21-.64-.54-.5-2.35-1.18-2.4-1.2-.31-.1-.61-.2-1.02-.02-.53.3-1.23,1.25-1.39,2.11-.09.49,0,.91.25,1.19.31.47,1.23,1.16,1.75,1.32.04.01.08.02.11.03l.2.04.27-.29v-.17c-.11-1.08.35-1.69,1.41-1.87ZM62.55,64.06c-.34-.22-.78-.56-.96-.84-.12-.14-.16-.35-.11-.61.11-.65.69-1.4.98-1.57.09-.04.16-.03.36.03.03,0,.06.02.09.03.55.21,1.36.56,1.83.84-.06.01-.12.02-.17.03-1.2.21-1.92.95-2.02,2.07Z"/>
      </g>
      <g id="wind_marks" data-name="wind marks">
        <path class="cls-2" d="M123.76,70.91c-1.11,13.96-8.31,27.14-20.07,34.84-6.06,4.08-12.97,6.84-20.11,8.34,5.34-.51,10.62-1.95,15.52-4.26,15.05-6.67,25.22-22.42,24.66-38.92Z"/>
        <path class="cls-2" d="M119.08,103.06c-6.44,6.95-14.77,12.05-23.71,15.11-2.87,1.03-5.83,1.83-8.84,2.43,25.71-2.58,46.51-23.01,46.02-49.46-.92,11.8-5.49,23.18-13.47,31.92Z"/>
        <path class="cls-2" d="M24.48,17.8c7.12-5.28,15.72-8.2,24.56-8.89-13.59-.81-27.27,6.13-34.84,17.43-2.55,3.74-4.48,7.88-5.62,12.2,3.4-8.18,8.77-15.52,15.91-20.75Z"/>
        <path class="cls-2" d="M20.4,11.35C29.6,4.52,40.8.77,52.23.05,34.71-.74,17.23,8.14,7.4,22.65c-3.3,4.79-5.83,10.1-7.4,15.65,4.23-10.64,11.17-20.19,20.4-26.95Z"/>
      </g>
    </g>
  </g>
</svg>